HIERARCHY
ROOT hip
{
  OFFSET 0.00112043 5.09927 -9.65472
  CHANNELS 6 Xposition Yposition Zposition Zrotation Xrotation Yrotation
  JOINT abdomen
  {
    OFFSET 0 -1.186 -1.5018
    CHANNELS 3 Zrotation Xrotation Yrotation
    JOINT abdomen2
    {
      OFFSET 0 9.964 0.2134
      CHANNELS 3 Zrotation Xrotation Yrotation
      JOINT chest
      {
        OFFSET 0 13.134 -3.2573
        CHANNELS 3 Zrotation Xrotation Yrotation
        JOINT neck
        {
          OFFSET 0 20.686 -1.6905
          CHANNELS 3 Zrotation Xrotation Yrotation
          JOINT head
          {
            OFFSET 0 7.238 -0.1237
            CHANNELS 3 Zrotation Xrotation Yrotation
            End Site
            {
              OFFSET 0 0 0
            }
          }
        }
        JOINT lCollar
        {
          OFFSET 1.7069 20.075 5.0056
          CHANNELS 3 Zrotation Xrotation Yrotation
          JOINT lShldr
          {
            OFFSET 13.6458 -0.047 -4.849
            CHANNELS 3 Zrotation Xrotation Yrotation
            JOINT lForeArm
            {
              OFFSET 28.3255 -0.9759 2.2888
              CHANNELS 3 Zrotation Xrotation Yrotation
              JOINT lHand
              {
                OFFSET 22.1583 -0.53 10.8316
                CHANNELS 3 Zrotation Xrotation Yrotation
                JOINT lThumb1
                {
                  OFFSET 0.786 0.112 2.5817
                  CHANNELS 3 Zrotation Xrotation Yrotation
                  JOINT lThumb2
                  {
                    OFFSET 0.3601 -0.878 4.2331
                    CHANNELS 3 Zrotation Xrotation Yrotation
                    JOINT lThumb2_End
                    {
                      OFFSET 1.8127 -1.216 2.2227
                      CHANNELS 3 Zrotation Xrotation Yrotation
                      End Site
                      {
                        OFFSET 0.0181 -0.0122 0.0222
                      }
                    }
                  }
                }
                JOINT lCarpal1
                {
                  OFFSET 0.9571 1.114 1.7695
                  CHANNELS 3 Zrotation Xrotation Yrotation
                  JOINT lIndex1
                  {
                    OFFSET 4.1246 0.487 4.1451
                    CHANNELS 3 Zrotation Xrotation Yrotation
                    JOINT lIndex2
                    {
                      OFFSET 3.4052 -1.454 2.7682
                      CHANNELS 3 Zrotation Xrotation Yrotation
                      JOINT lIndex2_End
                      {
                        OFFSET 1.4531 -1.795 1.2713
                        CHANNELS 3 Zrotation Xrotation Yrotation
                        End Site
                        {
                          OFFSET 0.0145 -0.0179 0.0127
                        }
                      }
                    }
                  }
                  JOINT lMid1
                  {
                    OFFSET 5.6954 0.21 2.1184
                    CHANNELS 3 Zrotation Xrotation Yrotation
                    JOINT lMid2
                    {
                      OFFSET 3.9766 -1.54 2.3863
                      CHANNELS 3 Zrotation Xrotation Yrotation
                      JOINT lMid2_End
                      {
                        OFFSET 1.4042 -1.926 1.125
                        CHANNELS 3 Zrotation Xrotation Yrotation
                        End Site
                        {
                          OFFSET 0.014 -0.0193 0.0113
                        }
                      }
                    }
                  }
                }
                JOINT lCarpal2
                {
                  OFFSET 2.0956 0.66 -0.3894
                  CHANNELS 3 Zrotation Xrotation Yrotation
                  JOINT lRing1
                  {
                    OFFSET 5.0395 -0.09 2.4971
                    CHANNELS 3 Zrotation Xrotation Yrotation
                    JOINT lRing2
                    {
                      OFFSET 3.7921 -1.552 1.4806
                      CHANNELS 3 Zrotation Xrotation Yrotation
                      JOINT lRing2_End
                      {
                        OFFSET 1.4655 -1.808 0.9609
                        CHANNELS 3 Zrotation Xrotation Yrotation
                        End Site
                        {
                          OFFSET 0.0147 -0.0181 0.0096
                        }
                      }
                    }
                  }
                  JOINT lPinky1
                  {
                    OFFSET 4.9141 -1.269 0.3591
                    CHANNELS 3 Zrotation Xrotation Yrotation
                    JOINT lPinky2
                    {
                      OFFSET 3.1477 -1.685 0.8462
                      CHANNELS 3 Zrotation Xrotation Yrotation
                      JOINT lPinky2_End
                      {
                        OFFSET 0.8055 -1.585 0.7955
                        CHANNELS 3 Zrotation Xrotation Yrotation
                        End Site
                        {
                          OFFSET 0.0081 -0.0158 0.008
                        }
                      }
                    }
                  }
                }
              }
            }
          }
        }
        JOINT rCollar
        {
          OFFSET -1.7069 20.075 5.0056
          CHANNELS 3 Zrotation Xrotation Yrotation
          JOINT rShldr
          {
            OFFSET -13.6458 -0.047 -4.849
            CHANNELS 3 Zrotation Xrotation Yrotation
            JOINT rForeArm
            {
              OFFSET -28.3255 -0.9759 2.2888
              CHANNELS 3 Zrotation Xrotation Yrotation
              JOINT rHand
              {
                OFFSET -22.1583 -0.53 10.8316
                CHANNELS 3 Zrotation Xrotation Yrotation
                JOINT rThumb1
                {
                  OFFSET -0.786 0.112 2.5817
                  CHANNELS 3 Zrotation Xrotation Yrotation
                  JOINT rThumb2
                  {
                    OFFSET -0.3601 -0.878 4.2331
                    CHANNELS 3 Zrotation Xrotation Yrotation
                    JOINT rThumb2_End
                    {
                      OFFSET -1.8127 -1.216 2.2227
                      CHANNELS 3 Zrotation Xrotation Yrotation
                      End Site
                      {
                        OFFSET -0.0181 -0.0122 0.0222
                      }
                    }
                  }
                }
                JOINT rCarpal1
                {
                  OFFSET -0.9571 1.114 1.7695
                  CHANNELS 3 Zrotation Xrotation Yrotation
                  JOINT rIndex1
                  {
                    OFFSET -4.1246 0.487 4.1451
                    CHANNELS 3 Zrotation Xrotation Yrotation
                    JOINT rIndex2
                    {
                      OFFSET -3.4052 -1.454 2.7682
                      CHANNELS 3 Zrotation Xrotation Yrotation
                      JOINT rIndex2_End
                      {
                        OFFSET -1.4531 -1.795 1.2713
                        CHANNELS 3 Zrotation Xrotation Yrotation
                        End Site
                        {
                          OFFSET -0.0145 -0.018 0.0127
                        }
                      }
                    }
                  }
                  JOINT rMid1
                  {
                    OFFSET -5.6954 0.21 2.1184
                    CHANNELS 3 Zrotation Xrotation Yrotation
                    JOINT rMid2
                    {
                      OFFSET -3.9766 -1.54 2.3863
                      CHANNELS 3 Zrotation Xrotation Yrotation
                      JOINT rMid2_End
                      {
                        OFFSET -1.4042 -1.926 1.125
                        CHANNELS 3 Zrotation Xrotation Yrotation
                        End Site
                        {
                          OFFSET -0.014 -0.0193 0.0113
                        }
                      }
                    }
                  }
                }
                JOINT rCarpal2
                {
                  OFFSET -2.0956 0.66 -0.3894
                  CHANNELS 3 Zrotation Xrotation Yrotation
                  JOINT rRing1
                  {
                    OFFSET -5.0395 -0.09 2.4971
                    CHANNELS 3 Zrotation Xrotation Yrotation
                    JOINT rRing2
                    {
                      OFFSET -3.7921 -1.552 1.4806
                      CHANNELS 3 Zrotation Xrotation Yrotation
                      JOINT rRing2_End
                      {
                        OFFSET -1.4655 -1.808 0.9609
                        CHANNELS 3 Zrotation Xrotation Yrotation
                        End Site
                        {
                          OFFSET -0.0147 -0.0181 0.0096
                        }
                      }
                    }
                  }
                  JOINT rPinky1
                  {
                    OFFSET -4.9141 -1.269 0.3592
                    CHANNELS 3 Zrotation Xrotation Yrotation
                    JOINT rPinky2
                    {
                      OFFSET -3.1477 -1.685 0.8462
                      CHANNELS 3 Zrotation Xrotation Yrotation
                      JOINT rPinky2_End
                      {
                        OFFSET -0.8055 -1.585 0.7955
                        CHANNELS 3 Zrotation Xrotation Yrotation
                        End Site
                        {
                          OFFSET -0.0081 -0.0158 0.008
                        }
                      }
                    }
                  }
                }
              }
            }
          }
        }
      }
    }
  }
  JOINT lThigh
  {
    OFFSET 8.367 -8.2066 0.5982
    CHANNELS 3 Zrotation Xrotation Yrotation
    JOINT lShin
    {
      OFFSET 2.1923 -43.463 -0.4932
      CHANNELS 3 Zrotation Xrotation Yrotation
      JOINT lFoot
      {
        OFFSET 0.7333 -45.8593 -2.6451
        CHANNELS 3 Zrotation Xrotation Yrotation
        End Site
        {
          OFFSET 2.6618 -4.2699 12.3931
        }
      }
    }
  }
  JOINT rThigh
  {
    OFFSET -8.367 -8.2066 0.5982
    CHANNELS 3 Zrotation Xrotation Yrotation
    JOINT rShin
    {
      OFFSET -2.1923 -43.463 -0.4931
      CHANNELS 3 Zrotation Xrotation Yrotation
      JOINT rFoot
      {
        OFFSET -0.7333 -45.8593 -2.6451
        CHANNELS 3 Zrotation Xrotation Yrotation
        End Site
        {
          OFFSET -2.6618 -4.2699 12.3931
        }
      }
    }
  }
}
MOTION
Frames:	6
Frame Time:	0.0333333
0 91.7903 2.51682 0 0 -0 0 0 -0 0 0 -0 0 0 -0 0 0 -0 0 0 -0 0 0 -0 1.66051 0.0835086 5.75766 -0.0175111 0.895433 15.7816 7.95139e-016 -1.98785e-016 -0 5.46658e-016 -3.97569e-016 -0 5.96354e-016 0 -0 3.97569e-016 1.98785e-016 9.54166e-015 1.49089e-016 -3.97569e-016 -0 6.4605e-016 0 3.18055e-015 5.96354e-016 0 3.18055e-015 8.94531e-016 -1.98785e-016 6.36111e-015 6.4605e-016 0 3.18055e-015 5.96354e-016 0 3.18055e-015 8.94531e-016 -1.98785e-016 6.36111e-015 1.49089e-016 -3.97569e-016 -0 6.4605e-016 0 3.18055e-015 5.96354e-016 0 3.18055e-015 8.94531e-016 -1.98785e-016 6.36111e-015 6.4605e-016 0 3.18055e-015 5.96354e-016 0 3.18055e-015 8.94531e-016 -1.98785e-016 6.36111e-015 0 0 -0 -1.4496 0.0636048 -5.0245 -1.74811 1.20616 -16.8394 -1.19271e-015 1.98785e-016 -3.18055e-015 -3.97569e-016 1.98785e-016 -3.18055e-015 -2.98177e-016 1.98785e-016 -3.18055e-015 -2.98177e-016 3.97569e-016 -0 4.96962e-016 0 -6.36111e-015 -9.93923e-017 3.97569e-016 -0 -8.94531e-016 5.96354e-016 -0 -3.97569e-016 3.97569e-016 -0 -9.93923e-017 3.97569e-016 -0 -8.94531e-016 5.96354e-016 -0 -3.97569e-016 3.97569e-016 -0 4.96962e-016 0 -6.36111e-015 -9.93923e-017 3.97569e-016 -0 -8.94531e-016 5.96354e-016 -0 -3.97569e-016 3.97569e-016 -0 -9.93923e-017 3.97569e-016 -0 -8.94531e-016 5.96354e-016 -0 -3.97569e-016 3.97569e-016 -0 -4.66111 -0.998717 0.12318 0.00986924 1.54847 0.176523 4.65186 -0.572283 -0.254274 4.66111 -0.998765 -0.123176 -0.00986867 1.54869 -0.176537 -4.65186 -0.572453 0.25427 
2.52458e-005 29.2046 -51.443 0 70.9971 -0 -2.32547 5.24553 0.353143 -4.71327 10.4721 0.926622 -4.71327 10.4721 0.926621 -8.63419 17.6336 2.81976 -26.2738 -41.3756 -19.7417 -9.5995 -0.333449 -4.16125 -74.2 -19.2769 -59.7964 52.6554 -22.4007 -101.185 -17.6331 -25.5801 11.9185 3.18055e-015 1.59028e-014 -3.18055e-015 -7.94503e-031 4.77083e-015 9.54166e-015 4.77083e-015 1.43125e-014 -0 3.18055e-015 6.36111e-015 -3.18055e-015 -1.11319e-014 6.36111e-015 9.54166e-015 7.06225e-031 1.27222e-014 -3.18055e-015 4.77083e-015 6.36111e-015 -0 -1.11319e-014 6.36111e-015 9.54166e-015 7.06225e-031 1.27222e-014 -3.18055e-015 4.77083e-015 6.36111e-015 -0 3.18055e-015 6.36111e-015 -3.18055e-015 -1.11319e-014 6.36111e-015 9.54166e-015 7.06225e-031 1.27222e-014 -3.18055e-015 4.77083e-015 6.36111e-015 -0 -1.11319e-014 6.36111e-015 9.54166e-015 7.06225e-031 1.27222e-014 -3.18055e-015 4.77083e-015 6.36111e-015 -0 9.67509 -0.559906 4.23358 73.3129 -20.6225 59.789 -42.4336 -43.7255 80.9297 20.0785 -31.5703 -7.08099 -2.48481e-015 1.09332e-015 -0 -1.304e-006 -3.41148e-006 -3.54698e-006 -4.20739e-007 5.86816e-007 -1.53103e-006 -8.94531e-016 1.88845e-015 -3.18055e-015 -2.83268e-015 6.95746e-016 -0 -1.304e-006 -3.41148e-006 -3.54698e-006 -4.20739e-007 5.86816e-007 -1.53103e-006 -2.83268e-015 6.95746e-016 -0 -1.304e-006 -3.41148e-006 -3.54698e-006 -4.20739e-007 5.86816e-007 -1.53103e-006 -8.94531e-016 1.88845e-015 -3.18055e-015 -2.83268e-015 6.95746e-016 -0 -1.304e-006 -3.41148e-006 -3.54698e-006 -4.20739e-007 5.86816e-007 -1.53103e-006 -2.83268e-015 6.95746e-016 -0 -1.304e-006 -3.41148e-006 -3.54698e-006 -4.20739e-007 5.86816e-007 -1.53103e-006 93.7454 -58.5944 82.7507 -149.242 64.6906 160.479 11.6388 34.777 3.64058 -93.7482 -58.5891 -82.7527 149.238 64.6908 -160.48 -11.6421 34.7769 -3.64305 
2.52458e-005 29.2046 -51.443 0 70.9971 -0 -2.19281 5.25165 0.316446 -4.44297 10.4871 0.840755 -4.44298 10.4871 0.84076 -8.26052 16.9575 2.67921 -24.8415 -40.95 -18.4875 -9.94674 -0.00761718 -3.4534 -73.3351 -19.4242 -59.7982 52.6554 -22.4007 -101.185 -16.5945 -26.717 12.3991 1.59028e-015 -1.59028e-015 3.18055e-015 -6.45003e-006 -1.1936e-006 1.72989e-006 -9.54166e-015 1.59028e-015 -6.36111e-015 1.59028e-015 1.59028e-015 3.18055e-015 -9.54166e-015 6.36111e-015 9.54166e-015 -6.45003e-006 -1.1936e-006 1.72989e-006 -9.54166e-015 -6.36111e-015 3.18055e-015 -9.54166e-015 6.36111e-015 9.54166e-015 -6.45003e-006 -1.1936e-006 1.72989e-006 -9.54166e-015 -6.36111e-015 3.18055e-015 1.59028e-015 1.59028e-015 3.18055e-015 -9.54166e-015 6.36111e-015 9.54166e-015 -6.45003e-006 -1.1936e-006 1.72989e-006 -9.54166e-015 -6.36111e-015 3.18055e-015 -9.54166e-015 6.36111e-015 9.54166e-015 -6.45003e-006 -1.1936e-006 1.72989e-006 -9.54166e-015 -6.36111e-015 3.18055e-015 9.26228 -0.888474 4.68325 73.3363 -20.484 59.8586 -42.6451 -43.325 79.9583 19.7217 -30.8134 -7.50709 -1.04362e-015 -2.95692e-015 3.18055e-015 -7.25564e-015 -5.49143e-015 -0 -1.04362e-014 7.20594e-016 -0 5.46658e-016 -3.00662e-015 3.18055e-015 -5.56597e-015 -9.61621e-015 9.54166e-015 7.95139e-016 -8.10048e-015 6.36111e-015 4.07509e-015 -5.64051e-015 6.36111e-015 -5.56597e-015 -9.61621e-015 9.54166e-015 7.95139e-016 -8.10048e-015 6.36111e-015 4.07509e-015 -5.64051e-015 6.36111e-015 5.46658e-016 -3.00662e-015 3.18055e-015 -5.56597e-015 -9.61621e-015 9.54166e-015 7.95139e-016 -8.10048e-015 6.36111e-015 4.07509e-015 -5.64051e-015 6.36111e-015 -5.56597e-015 -9.61621e-015 9.54166e-015 7.95139e-016 -8.10048e-015 6.36111e-015 4.07509e-015 -5.64051e-015 6.36111e-015 93.7454 -58.5944 82.7507 -149.242 64.6906 160.479 11.6388 34.777 3.64058 -93.7482 -58.5891 -82.7527 149.238 64.6908 -160.48 -11.6421 34.7769 -3.64305 
2.52458e-005 29.2046 -51.443 0 70.9971 -0 -2.05999 5.25758 0.279697 -4.17234 10.5015 0.75472 -4.17234 10.5015 0.754724 -7.88944 16.2801 2.54356 -23.4262 -40.4994 -17.2516 -10.2986 0.314528 -2.74228 -72.4677 -19.572 -59.7976 52.6554 -22.4007 -101.185 -15.5286 -27.8521 12.9106 -1.59028e-015 1.43125e-014 -3.18055e-015 -1.59028e-015 1.27222e-014 -3.18055e-015 -1.59028e-015 2.06736e-014 -3.18055e-015 -1.59028e-015 1.59028e-015 -3.18055e-015 -7.95139e-015 1.59028e-015 9.54166e-015 4.77083e-015 1.27222e-014 -6.36111e-015 -7.95139e-015 1.43125e-014 -3.18055e-015 -7.95139e-015 1.59028e-015 9.54166e-015 4.77083e-015 1.27222e-014 -6.36111e-015 -7.95139e-015 1.43125e-014 -3.18055e-015 -1.59028e-015 1.59028e-015 -3.18055e-015 -7.95139e-015 1.59028e-015 9.54166e-015 4.77083e-015 1.27222e-014 -6.36111e-015 -7.95139e-015 1.43125e-014 -3.18055e-015 -7.95139e-015 1.59028e-015 9.54166e-015 4.77083e-015 1.27222e-014 -6.36111e-015 -7.95139e-015 1.43125e-014 -3.18055e-015 8.85151 -1.22061 5.13112 73.3595 -20.3456 59.9282 -42.8462 -42.9211 78.9932 19.3735 -30.0528 -7.92517 3.67752e-015 3.97569e-015 -3.18055e-015 -3.47873e-015 -3.8763e-015 6.36111e-015 1.2921e-015 -2.48481e-016 -3.18055e-015 3.67752e-015 3.8266e-015 -3.18055e-015 -4.96962e-016 5.46658e-016 -3.18055e-015 -8.27607e-032 1.49089e-015 3.18055e-015 3.97569e-016 2.98177e-016 3.18055e-015 -4.96962e-016 5.46658e-016 -3.18055e-015 -8.27607e-032 1.49089e-015 3.18055e-015 3.97569e-016 2.98177e-016 3.18055e-015 3.67752e-015 3.8266e-015 -3.18055e-015 -4.96962e-016 5.46658e-016 -3.18055e-015 -8.27607e-032 1.49089e-015 3.18055e-015 3.97569e-016 2.98177e-016 3.18055e-015 -4.96962e-016 5.46658e-016 -3.18055e-015 -8.27607e-032 1.49089e-015 3.18055e-015 3.97569e-016 2.98177e-016 3.18055e-015 93.7454 -58.5944 82.7507 -149.242 64.6906 160.479 11.6388 34.777 3.64058 -93.7482 -58.5891 -82.7527 149.238 64.6908 -160.48 -11.6421 34.7769 -3.64305 
2.52458e-005 29.2046 -51.443 0 70.9971 -0 -1.92703 5.26329 0.242898 -3.90138 10.5153 0.668527 -3.90138 10.5153 0.668524 -7.52077 15.6011 2.41275 -22.0287 -40.0243 -16.0348 -10.6551 0.632804 -2.02795 -71.5979 -19.7199 -59.7946 52.6554 -22.4007 -101.185 -14.434 -28.9844 13.4546 -3.18055e-015 -3.18055e-015 -0 -6.36111e-015 -6.36111e-015 -3.18055e-015 -1.59028e-015 -6.36111e-015 3.18055e-015 -3.18055e-015 -3.18055e-015 -0 -9.54166e-015 -4.77083e-015 9.54166e-015 3.18055e-015 4.77083e-015 -0 3.18055e-015 1.59028e-015 3.18055e-015 -9.54166e-015 -4.77083e-015 9.54166e-015 3.18055e-015 4.77083e-015 -0 3.18055e-015 1.59028e-015 3.18055e-015 -3.18055e-015 -3.18055e-015 -0 -9.54166e-015 -4.77083e-015 9.54166e-015 3.18055e-015 4.77083e-015 -0 3.18055e-015 1.59028e-015 3.18055e-015 -9.54166e-015 -4.77083e-015 9.54166e-015 3.18055e-015 4.77083e-015 -0 3.18055e-015 1.59028e-015 3.18055e-015 8.44284 -1.5563 5.57715 73.3825 -20.2072 59.9976 -43.0372 -42.5139 78.0344 19.0338 -29.2889 -8.33551 3.3453e-006 -1.84358e-007 -1.55247e-006 3.18055e-015 -2.28602e-015 -3.18055e-015 3.6916e-006 -5.98856e-006 -3.08724e-006 -2.18663e-015 5.66536e-015 -0 3.3453e-006 -1.84358e-007 -1.55247e-006 -1.59028e-015 -9.93923e-017 -0 3.6916e-006 -5.98856e-006 -3.08724e-006 3.3453e-006 -1.84358e-007 -1.55247e-006 -1.59028e-015 -9.93923e-017 -0 3.6916e-006 -5.98856e-006 -3.08724e-006 -2.18663e-015 5.66536e-015 -0 3.3453e-006 -1.84358e-007 -1.55247e-006 -1.59028e-015 -9.93923e-017 -0 3.6916e-006 -5.98856e-006 -3.08724e-006 3.3453e-006 -1.84358e-007 -1.55247e-006 -1.59028e-015 -9.93923e-017 -0 3.6916e-006 -5.98856e-006 -3.08724e-006 93.7454 -58.5944 82.7507 -149.242 64.6906 160.479 11.6388 34.777 3.64058 -93.7482 -58.5891 -82.7527 149.238 64.6908 -160.48 -11.6421 34.7769 -3.64305 
2.52458e-005 29.2046 -51.443 0 70.9971 -0 -1.79393 5.26884 0.206055 -3.63012 10.5285 0.582181 -3.63012 10.5285 0.582179 -7.15444 14.9203 2.28672 -20.6501 -39.5253 -14.8383 -11.0161 0.947109 -1.31046 -70.7258 -19.868 -59.7892 52.6554 -22.4007 -101.185 -13.3091 -30.1127 14.0326 -1.42037e-006 -3.56299e-006 -7.68334e-007 2.21964e-006 2.25335e-006 3.70653e-008 -1.42037e-006 -3.56299e-006 -7.68334e-007 -3.18055e-015 -3.18055e-015 3.18055e-015 -1.42037e-006 -3.56299e-006 -7.68334e-007 2.21964e-006 2.25335e-006 3.70653e-008 -1.42037e-006 -3.56299e-006 -7.68334e-007 -1.42037e-006 -3.56299e-006 -7.68334e-007 2.21964e-006 2.25335e-006 3.70653e-008 -1.42037e-006 -3.56299e-006 -7.68334e-007 -3.18055e-015 -3.18055e-015 3.18055e-015 -1.42037e-006 -3.56299e-006 -7.68334e-007 2.21964e-006 2.25335e-006 3.70653e-008 -1.42037e-006 -3.56299e-006 -7.68334e-007 -1.42037e-006 -3.56299e-006 -7.68334e-007 2.21964e-006 2.25335e-006 3.70653e-008 -1.42037e-006 -3.56299e-006 -7.68334e-007 8.0363 -1.89553 6.02132 73.4053 -20.0687 60.0669 -43.218 -42.1038 77.0818 18.7023 -28.5216 -8.73824 1.19271e-015 6.75868e-015 1.27222e-014 2.38542e-015 4.57205e-015 1.27222e-014 1.39149e-015 1.98785e-015 6.36111e-015 -5.96354e-016 7.15625e-015 3.18055e-015 9.93923e-016 -4.57205e-015 1.27222e-014 -5.96354e-016 1.19271e-015 6.36111e-015 1.59028e-015 -2.78299e-015 1.59028e-014 9.93923e-016 -4.57205e-015 1.27222e-014 -5.96354e-016 1.19271e-015 6.36111e-015 1.59028e-015 -2.78299e-015 1.59028e-014 -5.96354e-016 7.15625e-015 3.18055e-015 9.93923e-016 -4.57205e-015 1.27222e-014 -5.96354e-016 1.19271e-015 6.36111e-015 1.59028e-015 -2.78299e-015 1.59028e-014 9.93923e-016 -4.57205e-015 1.27222e-014 -5.96354e-016 1.19271e-015 6.36111e-015 1.59028e-015 -2.78299e-015 1.59028e-014 93.7454 -58.5944 82.7507 -149.242 64.6906 160.479 11.6388 34.777 3.64058 -93.7482 -58.5891 -82.7527 149.238 64.6908 -160.48 -11.6421 34.7769 -3.64305 
